<?xml version="1.0" encoding="UTF-8" standalone="no"?>
<!DOCTYPE svg PUBLIC "-//W3C//DTD SVG 1.1//EN" "http://www.w3.org/Graphics/SVG/1.1/DTD/svg11.dtd">
<svg version="1.1" xmlns="http://www.w3.org/2000/svg" xmlns:xlink="http://www.w3.org/1999/xlink" preserveAspectRatio="xMidYMid meet" viewBox="0 0 16 16" width="16" height="16"><defs><path d="M-0.04 0.04C-0.04 0.04 -0.04 0.04 -0.04 0.04C1.56 0.03 14.36 -0.03 15.96 -0.04C15.96 -0.04 15.96 -0.04 15.96 -0.04C15.97 1.56 16.03 14.36 16.04 15.96C16.04 15.96 16.04 15.96 16.04 15.96C14.44 15.97 1.64 16.03 0.04 16.04C0.04 16.04 0.04 16.04 0.04 16.04C0.02 12.84 -0.03 1.64 -0.04 0.04Z" id="a2v4etsJi5"></path><path d="M1.03 14.03L0.97 2.03L2.97 2.02L3.03 14.02L1.03 14.03Z" id="d17MmCteh8"></path><path d="M13.03 13.98L12.97 1.98L14.97 1.97L15.03 13.97L13.03 13.98Z" id="b71YaYjimF"></path><path d="M12 7.98L8.98 4.5L9.02 11.5L12 7.98Z" id="a1C320qAPi"></path><path d="M4 8.02L6.98 4.5L7.02 11.5L4 8.02Z" id="a1sAYfyXdX"></path></defs><g><g><g><use xlink:href="#a2v4etsJi5" opacity="1" fill="#000000" fill-opacity="0"></use><g><use xlink:href="#a2v4etsJi5" opacity="1" fill-opacity="0" stroke="#000000" stroke-width="1" stroke-opacity="0"></use></g></g><g><use xlink:href="#d17MmCteh8" opacity="1" fill="#6e6e6e" fill-opacity="1"></use><g><use xlink:href="#d17MmCteh8" opacity="1" fill-opacity="0" stroke="#000000" stroke-width="1" stroke-opacity="0"></use></g></g><g><use xlink:href="#b71YaYjimF" opacity="1" fill="#6e6e6e" fill-opacity="1"></use><g><use xlink:href="#b71YaYjimF" opacity="1" fill-opacity="0" stroke="#000000" stroke-width="1" stroke-opacity="0"></use></g></g><g><use xlink:href="#a1C320qAPi" opacity="1" fill="#6e6e6e" fill-opacity="1"></use><g><use xlink:href="#a1C320qAPi" opacity="1" fill-opacity="0" stroke="#000000" stroke-width="1" stroke-opacity="0"></use></g></g><g><use xlink:href="#a1sAYfyXdX" opacity="1" fill="#6e6e6e" fill-opacity="1"></use><g><use xlink:href="#a1sAYfyXdX" opacity="1" fill-opacity="0" stroke="#000000" stroke-width="1" stroke-opacity="0"></use></g></g></g></g></svg>