<?xml version="1.0" encoding="UTF-8" standalone="no"?>
<!DOCTYPE svg PUBLIC "-//W3C//DTD SVG 1.1//EN" "http://www.w3.org/Graphics/SVG/1.1/DTD/svg11.dtd">
<svg version="1.1" xmlns="http://www.w3.org/2000/svg" xmlns:xlink="http://www.w3.org/1999/xlink" preserveAspectRatio="xMidYMid meet" viewBox="0 0 16 16" width="16" height="16"><defs><path d="M-0.01 0.01C-0.01 0.01 -0.01 0.01 -0.01 0.01C1.59 0.01 14.39 -0.01 15.99 -0.01C15.99 -0.01 15.99 -0.01 15.99 -0.01C15.99 1.59 16.01 14.39 16.01 15.99C16.01 15.99 16.01 15.99 16.01 15.99C14.41 15.99 1.61 16.01 0.01 16.01C0.01 16.01 0.01 16.01 0.01 16.01C0.01 12.81 -0.01 1.61 -0.01 0.01Z" id="d9Yv8aPUHm"></path><path d="M1.01 14.01L0.99 2.01L2.99 2.01L3.01 14.01L1.01 14.01Z" id="alH0cVW6C"></path><path d="M13.01 13.99L12.99 1.99L14.99 1.99L15.01 13.99L13.01 13.99Z" id="b9jbUbEBy"></path><path d="M12 8L9 4.5L9 11.5L12 8Z" id="a50AB3Ygm"></path><path d="M4 8L7 4.5L7 11.5L4 8Z" id="e1D3C5xj0K"></path></defs><g><g><g><use xlink:href="#d9Yv8aPUHm" opacity="1" fill="#000000" fill-opacity="0"></use><g><use xlink:href="#d9Yv8aPUHm" opacity="1" fill-opacity="0" stroke="#000000" stroke-width="1" stroke-opacity="0"></use></g></g><g><use xlink:href="#alH0cVW6C" opacity="1" fill="#afb1b3" fill-opacity="1"></use><g><use xlink:href="#alH0cVW6C" opacity="1" fill-opacity="0" stroke="#000000" stroke-width="1" stroke-opacity="0"></use></g></g><g><use xlink:href="#b9jbUbEBy" opacity="1" fill="#afb1b3" fill-opacity="1"></use><g><use xlink:href="#b9jbUbEBy" opacity="1" fill-opacity="0" stroke="#000000" stroke-width="1" stroke-opacity="0"></use></g></g><g><use xlink:href="#a50AB3Ygm" opacity="1" fill="#afb1b3" fill-opacity="1"></use><g><use xlink:href="#a50AB3Ygm" opacity="1" fill-opacity="0" stroke="#000000" stroke-width="1" stroke-opacity="0"></use></g></g><g><use xlink:href="#e1D3C5xj0K" opacity="1" fill="#afb1b3" fill-opacity="1"></use><g><use xlink:href="#e1D3C5xj0K" opacity="1" fill-opacity="0" stroke="#000000" stroke-width="1" stroke-opacity="0"></use></g></g></g></g></svg>