<?xml version="1.0" encoding="UTF-8" standalone="no"?>
<!DOCTYPE svg PUBLIC "-//W3C//DTD SVG 1.1//EN" "http://www.w3.org/Graphics/SVG/1.1/DTD/svg11.dtd">
<svg version="1.1" xmlns="http://www.w3.org/2000/svg" xmlns:xlink="http://www.w3.org/1999/xlink" preserveAspectRatio="xMidYMid meet" viewBox="0 0 16 16" width="16" height="16"><defs><path d="M0 0C0 0 0 0 0 0C1.6 0 14.4 0 16 0C16 0 16 0 16 0C16 1.6 16 14.4 16 16C16 16 16 16 16 16C14.4 16 1.6 16 0 16C0 16 0 16 0 16C0 12.8 0 1.6 0 0Z" id="e27fteItLy"></path><path d="M7 14L7 2L9 2L9 14L7 14Z" id="aZpcDlMYL"></path><path d="M5.5 8L2 4.5L2 11.5L5.5 8Z" id="bnzMjjbAX"></path><path d="M10.5 8L14 4.5L14 11.5L10.5 8Z" id="drvfZnxG9"></path></defs><g><g><g><use xlink:href="#e27fteItLy" opacity="1" fill="#000000" fill-opacity="0"></use><g><use xlink:href="#e27fteItLy" opacity="1" fill-opacity="0" stroke="#000000" stroke-width="1" stroke-opacity="0"></use></g></g><g><use xlink:href="#aZpcDlMYL" opacity="1" fill="#6e6e6e" fill-opacity="1"></use><g><use xlink:href="#aZpcDlMYL" opacity="1" fill-opacity="0" stroke="#000000" stroke-width="1" stroke-opacity="0"></use></g></g><g><use xlink:href="#bnzMjjbAX" opacity="1" fill="#6e6e6e" fill-opacity="1"></use><g><use xlink:href="#bnzMjjbAX" opacity="1" fill-opacity="0" stroke="#000000" stroke-width="1" stroke-opacity="0"></use></g></g><g><use xlink:href="#drvfZnxG9" opacity="1" fill="#6e6e6e" fill-opacity="1"></use><g><use xlink:href="#drvfZnxG9" opacity="1" fill-opacity="0" stroke="#000000" stroke-width="1" stroke-opacity="0"></use></g></g></g></g></svg>