<?xml version="1.0" encoding="UTF-8" standalone="no"?>
<!DOCTYPE svg PUBLIC "-//W3C//DTD SVG 1.1//EN" "http://www.w3.org/Graphics/SVG/1.1/DTD/svg11.dtd">
<svg version="1.1" xmlns="http://www.w3.org/2000/svg" xmlns:xlink="http://www.w3.org/1999/xlink" preserveAspectRatio="xMidYMid meet" viewBox="0 0 16 16" width="16" height="16"><defs><path d="M-0.08 0.08C-0.08 0.08 -0.08 0.08 -0.08 0.08C1.52 0.06 14.32 -0.06 15.92 -0.08C15.92 -0.08 15.92 -0.08 15.92 -0.08C15.94 1.52 16.06 14.32 16.08 15.92C16.08 15.92 16.08 15.92 16.08 15.92C14.48 15.94 1.68 16.06 0.08 16.08C0.08 16.08 0.08 16.08 0.08 16.08C0.05 12.88 -0.06 1.68 -0.08 0.08Z" id="bFnv2uRSn"></path><path d="M7.06 14.01L6.94 2.01L8.94 1.99L9.06 13.99L7.06 14.01Z" id="h1pVXHPXfL"></path><path d="M5.5 8.03L1.97 4.56L2.04 11.56L5.5 8.03Z" id="c3eEwrD4KE"></path><path d="M10.5 7.97L13.96 4.44L14.03 11.44L10.5 7.97Z" id="foqi9BsNP"></path></defs><g><g><g><use xlink:href="#bFnv2uRSn" opacity="1" fill="#000000" fill-opacity="0"></use><g><use xlink:href="#bFnv2uRSn" opacity="1" fill-opacity="0" stroke="#000000" stroke-width="1" stroke-opacity="0"></use></g></g><g><use xlink:href="#h1pVXHPXfL" opacity="1" fill="#afb1b3" fill-opacity="1"></use><g><use xlink:href="#h1pVXHPXfL" opacity="1" fill-opacity="0" stroke="#000000" stroke-width="1" stroke-opacity="0"></use></g></g><g><use xlink:href="#c3eEwrD4KE" opacity="1" fill="#afb1b3" fill-opacity="1"></use><g><use xlink:href="#c3eEwrD4KE" opacity="1" fill-opacity="0" stroke="#000000" stroke-width="1" stroke-opacity="0"></use></g></g><g><use xlink:href="#foqi9BsNP" opacity="1" fill="#afb1b3" fill-opacity="1"></use><g><use xlink:href="#foqi9BsNP" opacity="1" fill-opacity="0" stroke="#000000" stroke-width="1" stroke-opacity="0"></use></g></g></g></g></svg>